<svg xmlns="http://www.w3.org/2000/svg" style="display: none;">
  <!-- Cart Icon -->
  <symbol id="icon-cart" viewBox="0 0 24 24" fill="none" stroke="currentColor" stroke-width="2">
    <circle cx="9" cy="21" r="1"></circle>
    <circle cx="20" cy="21" r="1"></circle>
    <path d="M1 1h4l2.68 13.39a2 2 0 0 0 2 1.61h9.72a2 2 0 0 0 2-1.61L23 6H6"></path>
  </symbol>

  <!-- Search Icon -->
  <symbol id="icon-search" viewBox="0 0 24 24" fill="none" stroke="currentColor" stroke-width="2">
    <circle cx="11" cy="11" r="8"></circle>
    <path d="m21 21-4.35-4.35"></path>
  </symbol>

  <!-- User Icon -->
  <symbol id="icon-user" viewBox="0 0 24 24" fill="none" stroke="currentColor" stroke-width="2">
    <path d="M20 21v-2a4 4 0 0 0-4-4H8a4 4 0 0 0-4 4v2"></path>
    <circle cx="12" cy="7" r="4"></circle>
  </symbol>

  <!-- Menu Icon (Hamburger) -->
  <symbol id="icon-menu" viewBox="0 0 24 24" fill="none" stroke="currentColor" stroke-width="2">
    <line x1="3" y1="6" x2="21" y2="6"></line>
    <line x1="3" y1="12" x2="21" y2="12"></line>
    <line x1="3" y1="18" x2="21" y2="18"></line>
  </symbol>

  <!-- Shipping Icon -->
  <symbol id="icon-shipping" viewBox="0 0 24 24" fill="none" stroke="currentColor" stroke-width="2">
    <rect x="1" y="3" width="15" height="13"></rect>
    <polygon points="16 8 20 8 23 11 23 16 16 16 16 8"></polygon>
    <circle cx="5.5" cy="18.5" r="2.5"></circle>
    <circle cx="18.5" cy="18.5" r="2.5"></circle>
  </symbol>

  <!-- Lock Icon -->
  <symbol id="icon-lock" viewBox="0 0 24 24" fill="none" stroke="currentColor" stroke-width="2">
    <rect x="3" y="11" width="18" height="11" rx="2" ry="2"></rect>
    <path d="M7 11V7a5 5 0 0 1 10 0v4"></path>
  </symbol>

  <!-- Returns Icon -->
  <symbol id="icon-returns" viewBox="0 0 24 24" fill="none" stroke="currentColor" stroke-width="2">
    <polyline points="23 4 23 10 17 10"></polyline>
    <polyline points="1 20 1 14 7 14"></polyline>
    <path d="M3.51 9a9 9 0 0 1 14.85-3.36M20.49 15a9 9 0 0 1-14.85 3.36"></path>
  </symbol>

  <!-- Support Icon -->
  <symbol id="icon-support" viewBox="0 0 24 24" fill="none" stroke="currentColor" stroke-width="2">
    <path d="M21 15a2 2 0 0 1-2 2H7l-4 4V5a2 2 0 0 1 2-2h14a2 2 0 0 1 2 2z"></path>
  </symbol>

  <!-- Star Icon -->
  <symbol id="icon-star" viewBox="0 0 24 24" fill="currentColor">
    <polygon points="12 2 15.09 10.26 23.77 10.5 17.91 16.51 20.16 25.23 12 20.01 3.84 25.23 6.09 16.51 0.23 10.5 8.91 10.26"></polygon>
  </symbol>

  <!-- Star (Empty) Icon -->
  <symbol id="icon-star-empty" viewBox="0 0 24 24" fill="none" stroke="currentColor" stroke-width="2">
    <polygon points="12 2 15.09 10.26 23.77 10.5 17.91 16.51 20.16 25.23 12 20.01 3.84 25.23 6.09 16.51 0.23 10.5 8.91 10.26"></polygon>
  </symbol>

  <!-- Camera Icon (for image placeholder) -->
  <symbol id="icon-camera" viewBox="0 0 24 24" fill="none" stroke="currentColor" stroke-width="2">
    <path d="M23 19a2 2 0 0 1-2 2H3a2 2 0 0 1-2-2V8a2 2 0 0 1 2-2h4l2-3h6l2 3h4a2 2 0 0 1 2 2z"></path>
    <circle cx="12" cy="13" r="4"></circle>
  </symbol>

  <!-- Image Icon -->
  <symbol id="icon-image" viewBox="0 0 24 24" fill="none" stroke="currentColor" stroke-width="2">
    <rect x="3" y="3" width="18" height="18" rx="2" ry="2"></rect>
    <circle cx="8.5" cy="8.5" r="1.5"></circle>
    <polyline points="21 15 16 10 5 21"></polyline>
  </symbol>

  <!-- Check Icon -->
  <symbol id="icon-check" viewBox="0 0 24 24" fill="none" stroke="currentColor" stroke-width="2">
    <polyline points="20 6 9 17 4 12"></polyline>
  </symbol>

  <!-- X Icon (Close) -->
  <symbol id="icon-x" viewBox="0 0 24 24" fill="none" stroke="currentColor" stroke-width="2">
    <line x1="18" y1="6" x2="6" y2="18"></line>
    <line x1="6" y1="6" x2="18" y2="18"></line>
  </symbol>

  <!-- Arrow Right -->
  <symbol id="icon-arrow-right" viewBox="0 0 24 24" fill="none" stroke="currentColor" stroke-width="2">
    <line x1="5" y1="12" x2="19" y2="12"></line>
    <polyline points="12 5 19 12 12 19"></polyline>
  </symbol>

  <!-- Instagram Icon -->
  <symbol id="icon-instagram" viewBox="0 0 24 24" fill="currentColor">
    <rect x="2" y="2" width="20" height="20" rx="5" ry="5" fill="none" stroke="currentColor" stroke-width="2"></rect>
    <path d="M16 11.37A4 4 0 1 1 12.63 8 4 4 0 0 1 16 11.37Z" fill="none" stroke="currentColor" stroke-width="2"></path>
    <circle cx="17.5" cy="6.5" r="1.5" fill="currentColor"></circle>
  </symbol>

  <!-- Facebook Icon -->
  <symbol id="icon-facebook" viewBox="0 0 24 24" fill="currentColor">
    <path d="M24 12.073c0-6.627-5.373-12-12-12s-12 5.373-12 12c0 5.99 4.388 10.954 10.125 11.854v-8.385H7.078v-3.47h3.047V9.43c0-3.007 1.792-4.669 4.533-4.669 1.312 0 2.686.235 2.686.235v2.953H15.83c-1.491 0-1.956.925-1.956 1.874v2.25h3.328l-.532 3.47h-2.796v8.385C19.612 23.027 24 18.062 24 12.073z"></path>
  </symbol>

  <!-- Twitter Icon -->
  <symbol id="icon-twitter" viewBox="0 0 24 24" fill="currentColor">
    <path d="M23 3a10.9 10.9 0 01-3.14 1.53 4.48 4.48 0 00-7.86 3v1A10.66 10.66 0 013 4s-4 9 5 13a11.64 11.64 0 01-7 2s9 5 20 5a9.5 9.5 0 00-9-5.5c4.75 2.25 7-7 7-7"></path>
  </symbol>

  <!-- Pinterest Icon -->
  <symbol id="icon-pinterest" viewBox="0 0 24 24" fill="currentColor">
    <circle cx="12" cy="12" r="10" fill="none" stroke="currentColor" stroke-width="2"></circle>
    <circle cx="12" cy="12" r="3" fill="currentColor"></circle>
  </symbol>

  <!-- Sparkle Icon -->
  <symbol id="icon-sparkle" viewBox="0 0 24 24" fill="currentColor">
    <polygon points="12 2 15.09 10.26 23.77 10.5 17.91 16.51 20.16 25.23 12 20.01 3.84 25.23 6.09 16.51 0.23 10.5 8.91 10.26"></polygon>
    <circle cx="12" cy="12" r="2" fill="currentColor"></circle>
  </symbol>

  <!-- House Icon -->
  <symbol id="icon-house" viewBox="0 0 24 24" fill="none" stroke="currentColor" stroke-width="2">
    <path d="M3 9l9-7 9 7v11a2 2 0 0 1-2 2H5a2 2 0 0 1-2-2z"></path>
    <polyline points="9 22 9 12 15 12 15 22"></polyline>
  </symbol>

  <!-- Lightning Icon -->
  <symbol id="icon-lightning" viewBox="0 0 24 24" fill="none" stroke="currentColor" stroke-width="2">
    <polygon points="13 2 3 14 12 14 11 22 21 10 12 10 13 2"></polygon>
  </symbol>

  <!-- Email Icon -->
  <symbol id="icon-email" viewBox="0 0 24 24" fill="none" stroke="currentColor" stroke-width="2">
    <rect x="2" y="4" width="20" height="16" rx="2"></rect>
    <path d="m22 7-8.97 5.7a1.94 1.94 0 0 1-2.06 0L2 7"></path>
  </symbol>

  <!-- Verified Badge -->
  <symbol id="icon-verified" viewBox="0 0 24 24" fill="none" stroke="currentColor" stroke-width="2">
    <path d="M22 11.08V12a10 10 0 1 1-5.93-9.14"></path>
    <polyline points="22 4 12 14.01 9 11.01"></polyline>
  </symbol>
</svg>
